<?xml version="1.0" encoding="UTF-8" standalone="no"?><!DOCTYPE svg PUBLIC "-//W3C//DTD SVG 1.1//EN" "http://www.w3.org/Graphics/SVG/1.1/DTD/svg11.dtd"><svg width="100%" height="100%" viewBox="0 0 111 101" version="1.1" xmlns="http://www.w3.org/2000/svg" xmlns:xlink="http://www.w3.org/1999/xlink" xml:space="preserve" xmlns:serif="http://www.serif.com/" style="fill-rule:evenodd;clip-rule:evenodd;stroke-miterlimit:5;"><g><path d="M10.198,10.198l90.37,0" style="fill:none;stroke:#fff;stroke-width:4px;"/><path d="M40.527,96.662l30.37,-0" style="fill:none;stroke:#666;stroke-width:1px;"/><path d="M11.262,13.587l-0,80" style="fill:none;stroke:#7e7e7e;stroke-width:2px;"/><path d="M99.873,13.715l0,80" style="fill:none;stroke:#7e7e7e;stroke-width:2px;"/><path d="M40.183,38.573l30.026,30.027" style="fill:none;stroke:#fff;stroke-opacity:0.21;stroke-width:1px;"/><path d="M69.953,38.83l-14.404,14.404" style="fill:none;stroke:#fff;stroke-opacity:0.21;stroke-width:1px;"/><path d="M54.844,53.939l-14.661,14.661" style="fill:none;stroke:#fff;stroke-opacity:0.21;stroke-width:1px;"/><g><path d="M91.897,96.587l-0,2.075l-4.784,-0l-8,-2.075l12.784,-0Z" style="fill:#5a5a5a;"/><path d="M100.897,96.587l-0.002,2.277l-2.336,1.013l-0.975,0.842l-7.471,0.017l-3,-2.074l3,-2.075l10.784,-0Z" style="fill:#5a5a5a;"/></g><g><path d="M19.374,96.587l0,2.075l4.788,-0l8.006,-2.075l-12.794,-0Z" style="fill:#5a5a5a;"/><path d="M10.368,96.587l0.001,2.277l2.338,1.013l0.976,0.842l7.476,0.017l3.003,-2.074l-3.003,-2.075l-10.791,-0Z" style="fill:#5a5a5a;"/></g><rect x="14.779" y="13.587" width="80.833" height="80" style="fill:#fff;fill-opacity:0.22;"/></g></svg>