<?xml version="1.0" encoding="UTF-8" standalone="no"?><!DOCTYPE svg PUBLIC "-//W3C//DTD SVG 1.1//EN" "http://www.w3.org/Graphics/SVG/1.1/DTD/svg11.dtd"><svg width="100%" height="100%" viewBox="0 0 104 8" version="1.1" xmlns="http://www.w3.org/2000/svg" xmlns:xlink="http://www.w3.org/1999/xlink" xml:space="preserve" xmlns:serif="http://www.serif.com/" style="fill-rule:evenodd;clip-rule:evenodd;stroke-linejoin:round;stroke-miterlimit:2;"><g><path d="M97.973,-0l-20.273,8l5.224,-0.006l20.889,-7.994l-5.84,-0Z" style="fill:#fff;"/><path d="M69.612,8l20.258,-8l-5.21,-0l-20.258,8l5.21,-0" style="fill:#fff;"/><path d="M56.878,8l20.258,-8l-5.209,0l-20.258,8l5.209,-0" style="fill:#fff;"/><path d="M44.144,8l20.258,-8l-5.209,0l-20.258,8l5.209,-0" style="fill:#fff;"/><path d="M31.41,8l20.259,-8l-5.21,0l-20.258,8l5.209,-0" style="fill:#fff;"/><path d="M18.677,8l20.258,-8l-5.209,0l-20.259,8l5.21,-0" style="fill:#fff;"/><path d="M5.943,8l20.258,-8l-5.209,0l-20.258,8l5.209,-0" style="fill:#fff;"/><path d="M0,5.536l13.467,-5.536l-5.209,0l-8.236,3.424" style="fill:#fff;"/></g></svg>