<?xml version="1.0" encoding="UTF-8" standalone="no"?><!DOCTYPE svg PUBLIC "-//W3C//DTD SVG 1.1//EN" "http://www.w3.org/Graphics/SVG/1.1/DTD/svg11.dtd"><svg width="100%" height="100%" viewBox="0 0 615 149" version="1.1" xmlns="http://www.w3.org/2000/svg" xmlns:xlink="http://www.w3.org/1999/xlink" xml:space="preserve" xmlns:serif="http://www.serif.com/" style="fill-rule:evenodd;clip-rule:evenodd;stroke-miterlimit:1.5;"><path d="M0.836,117.224l58.612,-117.224l58.613,117.224l-70.346,0l11.733,-23.439l23.44,0l-23.44,-46.878l-35.172,70.317l-23.44,0Z" style="fill:#fff;fill-rule:nonzero;"/><path d="M136.32,117.224l23.439,-23.439l46.878,0l-0,-23.439l-58.612,-0c-3.225,-0 -5.991,-1.145 -8.3,-3.434c-2.27,-2.29 -3.405,-5.056 -3.405,-8.3l-0,-46.85c-0,-3.243 1.135,-6.01 3.405,-8.299c2.309,-2.309 5.075,-3.463 8.3,-3.463l70.346,-0c3.224,-0 5.991,1.145 8.299,3.434c2.271,2.309 3.406,5.075 3.406,8.3l0,11.734l-70.317,-0l-0,23.439l58.612,-0c3.224,-0 5.991,1.145 8.299,3.434c2.271,2.29 3.406,5.047 3.406,8.271l0,46.907c0,3.224 -1.135,5.991 -3.406,8.299c-2.308,2.271 -5.075,3.406 -8.299,3.406l-82.051,0Z" style="fill:#fff;fill-rule:nonzero;"/><path d="M295.242,117.224l-0,-93.756l-23.439,-0l-0,0.028l-23.439,0l-0,-11.734c-0,-3.243 1.135,-6.01 3.405,-8.299c2.309,-2.309 5.075,-3.463 8.3,-3.463l82.051,-0l23.468,23.468l-46.907,-0l-0,93.756l-23.439,0Z" style="fill:#fff;fill-rule:nonzero;"/><path d="M383.847,117.224l-0,-70.317l70.317,-0l0,-23.439l-46.878,-0l-0,0.028l-23.439,0l-0,-11.734c-0,-3.243 1.135,-6.01 3.406,-8.299c2.308,-2.309 5.075,-3.463 8.299,-3.463l70.346,-0c3.224,-0 5.991,1.145 8.3,3.434c2.27,2.309 3.405,5.075 3.405,8.3l0,46.878l-23.439,11.734l23.439,11.734l0,35.144l-23.439,0l0,-23.439l-46.878,-23.439l-0,46.878l-23.439,0Z" style="fill:#fff;fill-rule:nonzero;"/><path d="M589.647,93.785l0,-70.317l-70.317,-0l0,70.317l70.317,0Zm-93.756,23.439l-0,-105.462c-0,-3.243 1.135,-6.01 3.406,-8.299c2.308,-2.309 5.075,-3.463 8.299,-3.463l93.785,-0c3.225,-0 5.991,1.145 8.3,3.434c2.289,2.309 3.434,5.075 3.434,8.3l0,105.49l-117.224,0Z" style="fill:#fff;fill-rule:nonzero;"/><g><path d="M118.28,147.938l-117.379,0l0,-15.977l117.379,0l0,15.977Z" style="fill:url(#_Linear1);"/><path d="M0.901,131.961l117.379,0" style="fill:none;stroke:#dde1e6;stroke-width:1px;"/><path d="M230.078,148.036l-93.761,0l0,-15.977l93.761,-0l-0,15.977Z" style="fill:url(#_Linear2);"/><path d="M136.317,131.961l93.761,0" style="fill:none;stroke:#dde1e6;stroke-width:1px;"/><path d="M318.555,147.938l-23.416,0l-0,-15.977l23.416,0l-0,15.977Z" style="fill:url(#_Linear3);"/><path d="M295.139,132.157l23.416,-0" style="fill:none;stroke:#dde1e6;stroke-width:1px;"/><path d="M407.399,147.938l-23.628,0l0,-15.977l23.628,0l-0,15.977Z" style="fill:url(#_Linear4);"/><path d="M383.771,131.961l23.628,0" style="fill:none;stroke:#dde1e6;stroke-width:1px;"/><path d="M477.691,147.938l-23.477,0l0,-15.977l23.477,0l0,15.977Z" style="fill:url(#_Linear5);"/><path d="M454.214,131.961l23.477,0" style="fill:none;stroke:#dde1e6;stroke-width:1px;"/><path d="M613.166,147.938l-117.375,0l0,-15.977l117.375,0l-0,15.977Z" style="fill:url(#_Linear6);"/><path d="M495.791,132.002l117.375,0" style="fill:none;stroke:#dde1e6;stroke-width:1px;"/></g><defs><linearGradient id="_Linear1" x1="0" y1="0" x2="1" y2="0" gradientUnits="userSpaceOnUse" gradientTransform="matrix(-2.935e-15,15.9774,-117.379,-2.15622e-14,59.5909,131.961)"><stop offset="0" style="stop-color:#dde1e6;stop-opacity:0.5"/><stop offset="0.52" style="stop-color:#4a4b4d;stop-opacity:0.13"/><stop offset="1" style="stop-color:#161616;stop-opacity:0"/></linearGradient><linearGradient id="_Linear2" x1="0" y1="0" x2="1" y2="0" gradientUnits="userSpaceOnUse" gradientTransform="matrix(-2.935e-15,15.9774,-93.7602,-1.72235e-14,183.198,132.059)"><stop offset="0" style="stop-color:#dde1e6;stop-opacity:0.5"/><stop offset="0.52" style="stop-color:#4a4b4d;stop-opacity:0.13"/><stop offset="1" style="stop-color:#161616;stop-opacity:0"/></linearGradient><linearGradient id="_Linear3" x1="0" y1="0" x2="1" y2="0" gradientUnits="userSpaceOnUse" gradientTransform="matrix(-2.935e-15,15.9774,-23.416,-4.30145e-15,306.847,131.961)"><stop offset="0" style="stop-color:#dde1e6;stop-opacity:0.5"/><stop offset="0.52" style="stop-color:#4a4b4d;stop-opacity:0.13"/><stop offset="1" style="stop-color:#161616;stop-opacity:0"/></linearGradient><linearGradient id="_Linear4" x1="0" y1="0" x2="1" y2="0" gradientUnits="userSpaceOnUse" gradientTransform="matrix(-2.935e-15,15.9774,-23.6271,-4.34023e-15,395.585,131.961)"><stop offset="0" style="stop-color:#dde1e6;stop-opacity:0.5"/><stop offset="0.52" style="stop-color:#4a4b4d;stop-opacity:0.13"/><stop offset="1" style="stop-color:#161616;stop-opacity:0"/></linearGradient><linearGradient id="_Linear5" x1="0" y1="0" x2="1" y2="0" gradientUnits="userSpaceOnUse" gradientTransform="matrix(-2.935e-15,15.9774,-23.477,-4.31265e-15,465.953,131.961)"><stop offset="0" style="stop-color:#dde1e6;stop-opacity:0.5"/><stop offset="0.52" style="stop-color:#4a4b4d;stop-opacity:0.13"/><stop offset="1" style="stop-color:#161616;stop-opacity:0"/></linearGradient><linearGradient id="_Linear6" x1="0" y1="0" x2="1" y2="0" gradientUnits="userSpaceOnUse" gradientTransform="matrix(-2.935e-15,15.9774,-117.374,-2.15613e-14,554.478,131.961)"><stop offset="0" style="stop-color:#dde1e6;stop-opacity:0.5"/><stop offset="0.52" style="stop-color:#4a4b4d;stop-opacity:0.13"/><stop offset="1" style="stop-color:#161616;stop-opacity:0"/></linearGradient></defs></svg>